<?xml version="1.0" encoding="utf-8"?>
<!-- Generator: Adobe Illustrator 24.1.2, SVG Export Plug-In . SVG Version: 6.00 Build 0)  -->
<svg version="1.1" id="Layer_1" xmlns="http://www.w3.org/2000/svg" xmlns:xlink="http://www.w3.org/1999/xlink" x="0px" y="0px"
	 viewBox="0 0 931.4 248.9" style="enable-background:new 0 0 931.4 248.9;" xml:space="preserve">
<style type="text/css">
	.st0{fill:#1A3989;}
	.st1{fill:none;stroke:#1A3989;stroke-width:2.800000e-04;stroke-miterlimit:22.9256;}
	.st2{fill-rule:evenodd;clip-rule:evenodd;fill:#1A3989;}
</style>
<g>
	<polygon class="st0" points="314.21,87.72 314.21,32.59 324.48,32.59 350.26,65.32 375.9,32.59 386.23,32.59 386.23,87.72 
		374.32,87.72 374.32,49.78 350.8,81.09 348.31,81.09 324.48,50.67 324.48,87.72 314.21,87.72 	"/>
	<polygon class="st1" points="314.21,87.72 314.21,32.59 324.48,32.59 350.26,65.32 375.9,32.59 386.23,32.59 386.23,87.72 
		374.32,87.72 374.32,49.78 350.8,81.09 348.31,81.09 324.48,50.67 324.48,87.72 314.21,87.72 	"/>
	<path class="st0" d="M409.07,77.16h42.42V42.72h-42.42V77.16L409.07,77.16z M396.25,45.58c0-5.02,0.93-8.43,2.8-10.26
		c1.87-1.83,5.48-2.74,10.87-2.74h40.72c5.43,0,9.06,0.91,10.91,2.74c1.85,1.83,2.76,5.24,2.76,10.26v29.1
		c0,5.04-0.93,8.48-2.82,10.3c-1.89,1.83-5.5,2.74-10.85,2.74h-40.72c-5.39,0-9-0.91-10.87-2.74c-1.87-1.83-2.8-5.26-2.8-10.3V45.58
		L396.25,45.58z"/>
	<path class="st1" d="M409.07,77.16h42.42V42.72h-42.42V77.16L409.07,77.16z M396.25,45.58c0-5.02,0.93-8.43,2.8-10.26
		c1.87-1.83,5.48-2.74,10.87-2.74h40.72c5.43,0,9.06,0.91,10.91,2.74c1.85,1.83,2.76,5.24,2.76,10.26v29.1
		c0,5.04-0.93,8.48-2.82,10.3c-1.89,1.83-5.5,2.74-10.85,2.74h-40.72c-5.39,0-9-0.91-10.87-2.74c-1.87-1.83-2.8-5.26-2.8-10.3V45.58
		L396.25,45.58z"/>
	<path class="st0" d="M522.95,42.45h-36.24V54.1H521c5.39,0,9.02,0.89,10.87,2.69c1.87,1.8,2.8,5.24,2.8,10.28v7.59
		c0,5.06-0.95,8.5-2.86,10.32c-1.89,1.83-5.5,2.74-10.81,2.74h-34.16c-5.44,0-9.11-0.91-11.04-2.74c-1.93-1.83-2.88-5.26-2.88-10.32
		v-1.93h11.43v4.66h38.71V64.79h-34.1c-5.37,0-9.02-0.91-10.93-2.76c-1.91-1.85-2.86-5.28-2.86-10.3v-6.17
		c0-4.95,0.95-8.37,2.86-10.21c1.91-1.85,5.56-2.76,10.93-2.76h31.26c5.31,0,8.94,0.89,10.91,2.65c1.97,1.76,2.94,4.87,2.94,9.32
		v1.97h-11.12V42.45L522.95,42.45z"/>
	<path class="st1" d="M522.95,42.45h-36.24V54.1H521c5.39,0,9.02,0.89,10.87,2.69c1.87,1.8,2.8,5.24,2.8,10.28v7.59
		c0,5.06-0.95,8.5-2.86,10.32c-1.89,1.83-5.5,2.74-10.81,2.74h-34.16c-5.44,0-9.11-0.91-11.04-2.74c-1.93-1.83-2.88-5.26-2.88-10.32
		v-1.93h11.43v4.66h38.71V64.79h-34.1c-5.37,0-9.02-0.91-10.93-2.76c-1.91-1.85-2.86-5.28-2.86-10.3v-6.17
		c0-4.95,0.95-8.37,2.86-10.21c1.91-1.85,5.56-2.76,10.93-2.76h31.26c5.31,0,8.94,0.89,10.91,2.65c1.97,1.76,2.94,4.87,2.94,9.32
		v1.97h-11.12V42.45L522.95,42.45z"/>
	<polygon class="st0" points="577.42,42.45 577.42,87.72 564.6,87.72 564.6,42.45 539.19,42.45 539.19,32.59 602.89,32.59 
		602.89,42.45 577.42,42.45 	"/>
	<polygon class="st1" points="577.42,42.45 577.42,87.72 564.6,87.72 564.6,42.45 539.19,42.45 539.19,32.59 602.89,32.59 
		602.89,42.45 577.42,42.45 	"/>
	<path class="st0" d="M620.57,77.16h42.42V42.72h-42.42V77.16L620.57,77.16z M607.75,45.58c0-5.02,0.93-8.43,2.8-10.26
		c1.87-1.83,5.48-2.74,10.87-2.74h40.72c5.43,0,9.06,0.91,10.91,2.74c1.85,1.83,2.76,5.24,2.76,10.26v29.1
		c0,5.04-0.93,8.48-2.82,10.3c-1.89,1.83-5.5,2.74-10.85,2.74h-40.72c-5.39,0-9-0.91-10.87-2.74c-1.87-1.83-2.8-5.26-2.8-10.3V45.58
		L607.75,45.58z"/>
	<path class="st1" d="M620.57,77.16h42.42V42.72h-42.42V77.16L620.57,77.16z M607.75,45.58c0-5.02,0.93-8.43,2.8-10.26
		c1.87-1.83,5.48-2.74,10.87-2.74h40.72c5.43,0,9.06,0.91,10.91,2.74c1.85,1.83,2.76,5.24,2.76,10.26v29.1
		c0,5.04-0.93,8.48-2.82,10.3c-1.89,1.83-5.5,2.74-10.85,2.74h-40.72c-5.39,0-9-0.91-10.87-2.74c-1.87-1.83-2.8-5.26-2.8-10.3V45.58
		L607.75,45.58z"/>
	<polygon class="st0" points="789.27,42.45 789.27,87.72 776.45,87.72 776.45,42.45 751.04,42.45 751.04,32.59 814.74,32.59 
		814.74,42.45 789.27,42.45 	"/>
	<polygon class="st1" points="789.27,42.45 789.27,87.72 776.45,87.72 776.45,42.45 751.04,42.45 751.04,32.59 814.74,32.59 
		814.74,42.45 789.27,42.45 	"/>
	<path class="st0" d="M802.59,87.72l31.24-55.13h12.34l31.72,55.13h-14.4l-6.64-12.1h-34.81l-6.64,12.1H802.59L802.59,87.72z
		 M827.5,65.55h24.13l-12.26-22.97L827.5,65.55L827.5,65.55z"/>
	<path class="st1" d="M802.59,87.72l31.24-55.13h12.34l31.72,55.13h-14.4l-6.64-12.1h-34.81l-6.64,12.1H802.59L802.59,87.72z
		 M827.5,65.55h24.13l-12.26-22.97L827.5,65.55L827.5,65.55z"/>
	<polygon class="st0" points="882.8,87.72 882.8,32.59 895.75,32.59 895.75,77.4 931.4,77.4 931.4,87.72 882.8,87.72 	"/>
	<polygon class="st1" points="882.8,87.72 882.8,32.59 895.75,32.59 895.75,77.4 931.4,77.4 931.4,87.72 882.8,87.72 	"/>
	<path class="st0" d="M734.46,42.45h-36.24V54.1h34.29c5.39,0,9.02,0.89,10.87,2.69c1.87,1.8,2.8,5.24,2.8,10.28v7.59
		c0,5.06-0.95,8.5-2.86,10.32c-1.89,1.83-5.5,2.74-10.81,2.74h-34.16c-5.44,0-9.11-0.91-11.04-2.74c-1.93-1.83-2.88-5.26-2.88-10.32
		v-1.93h11.43v4.66h38.71V64.79h-34.1c-5.37,0-9.02-0.91-10.93-2.76c-1.91-1.85-2.86-5.28-2.86-10.3v-6.17
		c0-4.95,0.95-8.37,2.86-10.21c1.91-1.85,5.56-2.76,10.93-2.76h31.26c5.31,0,8.94,0.89,10.91,2.65c1.97,1.76,2.94,4.87,2.94,9.32
		v1.97h-11.12V42.45L734.46,42.45z"/>
	<path class="st1" d="M734.46,42.45h-36.24V54.1h34.29c5.39,0,9.02,0.89,10.87,2.69c1.87,1.8,2.8,5.24,2.8,10.28v7.59
		c0,5.06-0.95,8.5-2.86,10.32c-1.89,1.83-5.5,2.74-10.81,2.74h-34.16c-5.44,0-9.11-0.91-11.04-2.74c-1.93-1.83-2.88-5.26-2.88-10.32
		v-1.93h11.43v4.66h38.71V64.79h-34.1c-5.37,0-9.02-0.91-10.93-2.76c-1.91-1.85-2.86-5.28-2.86-10.3v-6.17
		c0-4.95,0.95-8.37,2.86-10.21c1.91-1.85,5.56-2.76,10.93-2.76h31.26c5.31,0,8.94,0.89,10.91,2.65c1.97,1.76,2.94,4.87,2.94,9.32
		v1.97h-11.12V42.45L734.46,42.45z"/>
	<path class="st2" d="M281.44,24.35c8.25,0,14.94,6.69,14.94,14.94c0,8.25-6.69,14.94-14.94,14.94c-8.25,0-14.94-6.69-14.94-14.94
		C266.51,31.04,273.2,24.35,281.44,24.35L281.44,24.35z M281.44,27.36c-6.59,0-11.93,5.34-11.93,11.93
		c0,6.59,5.34,11.93,11.93,11.93s11.93-5.34,11.93-11.93C293.37,32.7,288.03,27.36,281.44,27.36L281.44,27.36z M284.4,40.32
		c0.34,0.25,0.65,0.53,0.93,0.84c0.59,0.66,1.14,1.59,1.59,2.35l1.93,3.22h-3.97l-2.07-3.23c-0.4-0.62-0.93-1.5-1.42-2.04
		c-0.2-0.22-0.43-0.41-0.71-0.51c-0.35-0.13-0.91-0.14-1.28-0.14h-0.25v5.92h-3.34V31.95h6.08c0.99,0,2.34,0.04,3.27,0.4
		c0.75,0.29,1.32,0.8,1.73,1.48c0.44,0.73,0.63,1.54,0.63,2.39c0,1.05-0.28,2.03-0.97,2.83C285.99,39.72,285.22,40.11,284.4,40.32
		L284.4,40.32z M279.16,37.95h1.73c0.53,0,1.88,0.02,2.37-0.15c0.26-0.09,0.47-0.25,0.62-0.48c0.17-0.27,0.23-0.59,0.23-0.9
		c0-0.35-0.07-0.69-0.3-0.97c-0.22-0.26-0.52-0.39-0.85-0.45c-0.57-0.08-1.38-0.04-1.96-0.04h-1.84V37.95L279.16,37.95z"/>
	<path class="st1" d="M281.44,24.35c8.25,0,14.94,6.69,14.94,14.94c0,8.25-6.69,14.94-14.94,14.94c-8.25,0-14.94-6.69-14.94-14.94
		C266.51,31.04,273.2,24.35,281.44,24.35L281.44,24.35z M281.44,27.36c-6.59,0-11.93,5.34-11.93,11.93
		c0,6.59,5.34,11.93,11.93,11.93s11.93-5.34,11.93-11.93C293.37,32.7,288.03,27.36,281.44,27.36L281.44,27.36z M284.4,40.32
		c0.34,0.25,0.65,0.53,0.93,0.84c0.59,0.66,1.14,1.59,1.59,2.35l1.93,3.22h-3.97l-2.07-3.23c-0.4-0.62-0.93-1.5-1.42-2.04
		c-0.2-0.22-0.43-0.41-0.71-0.51c-0.35-0.13-0.91-0.14-1.28-0.14h-0.25v5.92h-3.34V31.95h6.08c0.99,0,2.34,0.04,3.27,0.4
		c0.75,0.29,1.32,0.8,1.73,1.48c0.44,0.73,0.63,1.54,0.63,2.39c0,1.05-0.28,2.03-0.97,2.83C285.99,39.72,285.22,40.11,284.4,40.32
		L284.4,40.32z M279.16,37.95h1.73c0.53,0,1.88,0.02,2.37-0.15c0.26-0.09,0.47-0.25,0.62-0.48c0.17-0.27,0.23-0.59,0.23-0.9
		c0-0.35-0.07-0.69-0.3-0.97c-0.22-0.26-0.52-0.39-0.85-0.45c-0.57-0.08-1.38-0.04-1.96-0.04h-1.84V37.95L279.16,37.95z"/>
	<polygon class="st2" points="87.18,93.07 138.16,93.07 178.59,33.52 256.56,33.52 256.54,221.79 190.91,221.79 190.91,151.48 
		177.01,151.48 126.61,221.79 90.86,221.89 90.6,221.89 90.5,151.19 77.98,151.19 26.93,221.79 0.6,221.79 0.6,217.18 87.18,93.07 	
		"/>
	<polygon class="st1" points="87.18,93.07 138.16,93.07 178.59,33.52 256.56,33.52 256.54,221.79 190.91,221.79 190.91,151.48 
		177.01,151.48 126.61,221.79 90.86,221.89 90.6,221.89 90.5,151.19 77.98,151.19 26.93,221.79 0.6,221.79 0.6,217.18 87.18,93.07 	
		"/>
	<path class="st2" d="M344.48,120.76l-1.43-0.71c-2.17-1.09-4.44-1.97-6.75-2.71c-1.9-0.62-3.98-0.78-5.97-0.81
		c-2.95-0.05-6.06,0.5-8.48,2.29c-2.26,1.66-2.77,4.64-2.77,7.27c0,1.92,0.58,3.56,2.07,4.83c1.99,1.7,4.85,2.68,7.35,3.33
		l3.77,0.98c2.8,0.74,5.73,1.7,8.15,3.32c3.39,2.31,5.6,5.47,5.6,9.69c0,4.42-1.08,8.96-4.99,11.53c-3.23,2.09-6.82,3.37-10.7,3.37
		c-3.41,0-6.84-0.43-10.08-1.56c-2.04-0.81-3.98-1.88-5.82-3.07l-0.46-0.29v-5.39l1.5,0.89c1.98,1.18,3.95,2.41,6.09,3.3
		c2.21,0.91,4.59,1.55,6.99,1.55c3.19,0,6.42-0.61,9.1-2.41c2.56-1.7,3.18-4.78,3.18-7.65c0-1.86-0.49-3.57-1.9-4.85
		c-2.21-2.04-4.98-3.26-7.87-3.96l-3.82-0.92c-2.82-0.69-5.6-1.7-8.07-3.23c-3.35-2.12-5.32-5.13-5.32-9.16
		c0-4.13,1.13-8.03,4.3-10.83c3.17-2.82,7.74-3.54,11.84-3.56c2.33,0,4.84,0.09,7.07,0.81c1.93,0.63,5.45,1.47,7.02,2.63l0.4,0.3
		V120.76L344.48,120.76z M381.59,135.36h27.94v4.1h-27.94v18.43h30.12v4.3h-34.44v-49.21h33.62v4.23h-29.31V135.36L381.59,135.36z
		 M557.34,155.8c-4.82,4.82-11.56,7.48-18.35,7.48c-15.33,0-25.83-10.23-25.83-25.49c-0.19-15.32,10.51-26,25.83-26
		c6.79,0,13.54,2.66,18.35,7.48l0.25,0.26l-3.03,2.83l-0.24-0.24c-4.14-4.15-9.52-6.27-15.34-6.27c-13.05,0-21.63,8.85-21.44,21.77
		c0.18,12.73,8.5,21.45,21.44,21.45c5.72,0,11.29-2.21,15.34-6.27l0.25-0.25l3.01,3.01L557.34,155.8L557.34,155.8z M465.9,136.99
		c0.2,14.75-10.02,25.16-24.99,25.16h-16.67v-49.17h16.67C455.43,112.98,465.51,122.64,465.9,136.99L465.9,136.99z M481.64,157.89
		h30.12v4.3h-34.44v-49.28h4.31v0.35c0,6.22,0,12.44,0,18.66c0,1.02,0,2.04,0,3.06c0,0.09,0,0.19,0,0.3
		C481.64,142.81,481.64,150.35,481.64,157.89L481.64,157.89z M573.73,135.36h27.94v4.1h-27.94v18.43h30.12v4.3h-34.44v-49.21h33.62
		v4.23h-29.31V135.36L573.73,135.36z M357.35,162.2v-49.3h4.31v49.3H357.35L357.35,162.2z M428.69,117.27v40.59h12.22
		c12.21,0,20.73-8.69,20.54-20.86c-0.38-11.84-8.52-19.73-20.54-19.73H428.69L428.69,117.27z"/>
	<path class="st1" d="M344.48,120.76l-1.43-0.71c-2.17-1.09-4.44-1.97-6.75-2.71c-1.9-0.62-3.98-0.78-5.97-0.81
		c-2.95-0.05-6.06,0.5-8.48,2.29c-2.26,1.66-2.77,4.64-2.77,7.27c0,1.92,0.58,3.56,2.07,4.83c1.99,1.7,4.85,2.68,7.35,3.33
		l3.77,0.98c2.8,0.74,5.73,1.7,8.15,3.32c3.39,2.31,5.6,5.47,5.6,9.69c0,4.42-1.08,8.96-4.99,11.53c-3.23,2.09-6.82,3.37-10.7,3.37
		c-3.41,0-6.84-0.43-10.08-1.56c-2.04-0.81-3.98-1.88-5.82-3.07l-0.46-0.29v-5.39l1.5,0.89c1.98,1.18,3.95,2.41,6.09,3.3
		c2.21,0.91,4.59,1.55,6.99,1.55c3.19,0,6.42-0.61,9.1-2.41c2.56-1.7,3.18-4.78,3.18-7.65c0-1.86-0.49-3.57-1.9-4.85
		c-2.21-2.04-4.98-3.26-7.87-3.96l-3.82-0.92c-2.82-0.69-5.6-1.7-8.07-3.23c-3.35-2.12-5.32-5.13-5.32-9.16
		c0-4.13,1.13-8.03,4.3-10.83c3.17-2.82,7.74-3.54,11.84-3.56c2.33,0,4.84,0.09,7.07,0.81c1.93,0.63,5.45,1.47,7.02,2.63l0.4,0.3
		V120.76L344.48,120.76z M381.59,135.36h27.94v4.1h-27.94v18.43h30.12v4.3h-34.44v-49.21h33.62v4.23h-29.31V135.36L381.59,135.36z
		 M557.34,155.8c-4.82,4.82-11.56,7.48-18.35,7.48c-15.33,0-25.83-10.23-25.83-25.49c-0.19-15.32,10.51-26,25.83-26
		c6.79,0,13.54,2.66,18.35,7.48l0.25,0.26l-3.03,2.83l-0.24-0.24c-4.14-4.15-9.52-6.27-15.34-6.27c-13.05,0-21.63,8.85-21.44,21.77
		c0.18,12.73,8.5,21.45,21.44,21.45c5.72,0,11.29-2.21,15.34-6.27l0.25-0.25l3.01,3.01L557.34,155.8L557.34,155.8z M465.9,136.99
		c0.2,14.75-10.02,25.16-24.99,25.16h-16.67v-49.17h16.67C455.43,112.98,465.51,122.64,465.9,136.99L465.9,136.99z M481.64,157.89
		h30.12v4.3h-34.44v-49.28h4.31v0.35c0,6.22,0,12.44,0,18.66c0,1.02,0,2.04,0,3.06c0,0.09,0,0.19,0,0.3
		C481.64,142.81,481.64,150.35,481.64,157.89L481.64,157.89z M573.73,135.36h27.94v4.1h-27.94v18.43h30.12v4.3h-34.44v-49.21h33.62
		v4.23h-29.31V135.36L573.73,135.36z M357.35,162.2v-49.3h4.31v49.3H357.35L357.35,162.2z M428.69,117.27v40.59h12.22
		c12.21,0,20.73-8.69,20.54-20.86c-0.38-11.84-8.52-19.73-20.54-19.73H428.69L428.69,117.27z"/>
	<path class="st0" d="M337.19,222.76c-1.29,0.62-2.62,1.09-4,1.41c-1.38,0.32-2.78,0.48-4.18,0.48c-3.15,0-5.64-0.84-7.43-2.51
		c-1.8-1.67-2.7-3.96-2.7-6.87c0-3,0.93-5.35,2.8-7.03c1.86-1.69,4.47-2.53,7.81-2.53c2.17,0,3.92,0.45,5.24,1.36
		c1.32,0.91,2.07,2.16,2.25,3.76h-2.61c-0.24-0.96-0.8-1.69-1.7-2.21c-0.9-0.52-2.06-0.78-3.47-0.78c-2.36,0-4.23,0.67-5.6,2
		c-1.37,1.33-2.06,3.14-2.06,5.42c0,2.26,0.68,4.05,2.05,5.34c1.36,1.3,3.24,1.95,5.63,1.95c1.09,0,2.1-0.09,3.03-0.28
		c0.94-0.19,1.77-0.46,2.51-0.82v-4.62h-5.49v-2.09h7.93V222.76L337.19,222.76z M355.31,224.34v-18.35h2.44v7.98l9.63-7.98h3.28
		l-9.92,8.11l10.89,10.24h-3.58l-10.3-9.76v9.76H355.31L355.31,224.34z M403.17,214.15h5.37c1.98,0,3.25-0.22,3.82-0.65
		c0.58-0.43,0.86-1.22,0.86-2.36c0-1.15-0.29-1.93-0.86-2.37c-0.58-0.43-1.85-0.65-3.82-0.65h-5.37V214.15L403.17,214.15z
		 M400.73,224.34v-18.35h7.99c1.5,0,2.6,0.06,3.28,0.19c0.68,0.13,1.26,0.35,1.75,0.65c0.65,0.42,1.14,0.98,1.49,1.68
		c0.34,0.71,0.51,1.52,0.51,2.45c0,1.93-0.51,3.3-1.53,4.1c-1.02,0.8-2.83,1.2-5.42,1.2h-5.62v8.07H400.73L400.73,224.34z
		 M448.04,215.17c0-2.14-0.66-3.89-1.98-5.25c-1.32-1.36-3.02-2.04-5.09-2.04c-2.12,0-3.85,0.68-5.19,2.03c-1.33,1.35-2,3.11-2,5.26
		c0,2.15,0.66,3.89,1.99,5.24c1.33,1.35,3.05,2.02,5.17,2.02c2.1,0,3.81-0.67,5.13-2.02C447.38,219.06,448.04,217.32,448.04,215.17
		L448.04,215.17z M440.92,224.63c-1.47,0-2.78-0.21-3.91-0.62c-1.14-0.42-2.15-1.05-3.04-1.91c-0.93-0.91-1.64-1.96-2.13-3.14
		c-0.49-1.18-0.74-2.45-0.74-3.79c0-1.36,0.25-2.64,0.74-3.83c0.49-1.19,1.21-2.23,2.13-3.12c0.9-0.86,1.91-1.5,3.05-1.91
		c1.13-0.41,2.43-0.62,3.89-0.62c1.47,0,2.77,0.21,3.91,0.62c1.14,0.42,2.16,1.05,3.05,1.91c0.93,0.89,1.64,1.93,2.14,3.12
		c0.5,1.19,0.75,2.47,0.75,3.83c0,1.35-0.25,2.62-0.74,3.81c-0.49,1.18-1.21,2.23-2.15,3.12c-0.9,0.85-1.92,1.49-3.05,1.91
		C443.68,224.42,442.38,224.63,440.92,224.63L440.92,224.63z M468.23,224.34v-18.35h2.51v16.09h10.22v2.26H468.23L468.23,224.34z
		 M497.53,224.34v-18.35h2.52v18.35H497.53L497.53,224.34z M518.98,224.34v-18.35h4.2l7.61,15.95l7.68-15.95h4.18v18.35h-2.39
		v-16.77l-8.1,16.77h-2.77l-8-16.77v16.77H518.98L518.98,224.34z M561.51,224.34v-18.35h13.28v2.18h-10.84v5.37h10.07v2.19h-10.07
		v6.32h11.17v2.29H561.51L561.51,224.34z M588.72,224.34l8.2-9.45l-7.4-8.9H593l5.67,7.22l5.86-7.22h3.34l-7.52,8.72l7.78,9.63
		h-3.33l-6.17-7.9l-6.5,7.9H588.72L588.72,224.34z M637.11,224.34v-18.35h4.2l7.61,15.95l7.68-15.95h4.18v18.35h-2.39v-16.77
		l-8.1,16.77h-2.77l-8-16.77v16.77H637.11L637.11,224.34z M695.18,215.17c0-2.14-0.66-3.89-1.98-5.25
		c-1.32-1.36-3.02-2.04-5.09-2.04c-2.12,0-3.85,0.68-5.19,2.03c-1.33,1.35-2,3.11-2,5.26c0,2.15,0.66,3.89,1.99,5.24
		c1.33,1.35,3.05,2.02,5.17,2.02c2.1,0,3.81-0.67,5.13-2.02C694.52,219.06,695.18,217.32,695.18,215.17L695.18,215.17z
		 M688.06,224.63c-1.47,0-2.78-0.21-3.91-0.62c-1.14-0.42-2.15-1.05-3.04-1.91c-0.93-0.91-1.64-1.96-2.13-3.14
		c-0.49-1.18-0.74-2.45-0.74-3.79c0-1.36,0.25-2.64,0.74-3.83c0.49-1.19,1.21-2.23,2.13-3.12c0.9-0.86,1.91-1.5,3.05-1.91
		c1.13-0.41,2.43-0.62,3.89-0.62c1.47,0,2.77,0.21,3.91,0.62c1.14,0.42,2.16,1.05,3.05,1.91c0.93,0.89,1.64,1.93,2.14,3.12
		c0.5,1.19,0.75,2.47,0.75,3.83c0,1.35-0.25,2.62-0.74,3.81c-0.49,1.18-1.21,2.23-2.15,3.12c-0.9,0.85-1.92,1.49-3.05,1.91
		C690.82,224.42,689.52,224.63,688.06,224.63L688.06,224.63z M714.03,218.79h2.64c0.08,1.24,0.61,2.19,1.57,2.86
		c0.97,0.67,2.31,1.01,4.02,1.01c1.7,0,3.04-0.32,4.03-0.96c0.99-0.64,1.48-1.5,1.48-2.59c0-0.47-0.13-0.88-0.38-1.22
		c-0.26-0.34-0.65-0.63-1.19-0.87c-0.35-0.14-1.38-0.34-3.11-0.61c-0.58-0.08-1.04-0.15-1.36-0.2c-0.05-0.01-0.14-0.02-0.24-0.04
		c-2.24-0.35-3.76-0.72-4.57-1.11c-0.88-0.45-1.52-1.01-1.94-1.67c-0.41-0.65-0.61-1.47-0.61-2.44c0-1.6,0.72-2.88,2.15-3.84
		c1.43-0.96,3.37-1.44,5.83-1.44c2.34,0,4.14,0.45,5.41,1.35c1.26,0.9,1.91,2.19,1.92,3.86l-2.54,0.01
		c-0.1-1.02-0.58-1.81-1.43-2.37c-0.86-0.56-2.01-0.84-3.46-0.84c-1.68,0-2.97,0.28-3.86,0.86c-0.89,0.57-1.33,1.4-1.33,2.48
		c0,0.45,0.1,0.82,0.29,1.11c0.19,0.3,0.51,0.55,0.95,0.76c0.39,0.19,1.76,0.48,4.11,0.85c0.82,0.12,1.48,0.23,1.96,0.31
		c2.27,0.37,3.84,0.91,4.72,1.64c0.88,0.73,1.32,1.79,1.32,3.2c0,1.81-0.75,3.21-2.25,4.22c-1.5,1.01-3.6,1.51-6.3,1.51
		c-2.49,0-4.41-0.51-5.78-1.51c-1.37-1.01-2.05-2.42-2.05-4.25V218.79L714.03,218.79z M745.26,208.24v-2.25h17.53v2.25h-7.51v16.1
		h-2.51v-16.1H745.26L745.26,208.24z M794.42,215.17c0-2.14-0.66-3.89-1.98-5.25c-1.32-1.36-3.02-2.04-5.09-2.04
		c-2.12,0-3.85,0.68-5.19,2.03c-1.33,1.35-2,3.11-2,5.26c0,2.15,0.66,3.89,1.99,5.24c1.33,1.35,3.05,2.02,5.17,2.02
		c2.1,0,3.81-0.67,5.13-2.02C793.76,219.06,794.42,217.32,794.42,215.17L794.42,215.17z M787.3,224.63c-1.47,0-2.78-0.21-3.91-0.62
		c-1.14-0.42-2.15-1.05-3.04-1.91c-0.93-0.91-1.64-1.96-2.13-3.14c-0.49-1.18-0.74-2.45-0.74-3.79c0-1.36,0.25-2.64,0.74-3.83
		c0.49-1.19,1.21-2.23,2.13-3.12c0.9-0.86,1.91-1.5,3.05-1.91c1.13-0.41,2.43-0.62,3.89-0.62c1.47,0,2.77,0.21,3.91,0.62
		c1.14,0.42,2.16,1.05,3.05,1.91c0.93,0.89,1.64,1.93,2.14,3.12c0.5,1.19,0.75,2.47,0.75,3.83c0,1.35-0.25,2.62-0.74,3.81
		c-0.49,1.18-1.21,2.23-2.15,3.12c-0.9,0.85-1.92,1.49-3.05,1.91C790.06,224.42,788.76,224.63,787.3,224.63L787.3,224.63z
		 M813.27,218.79h2.64c0.08,1.24,0.61,2.19,1.57,2.86c0.97,0.67,2.31,1.01,4.02,1.01c1.7,0,3.04-0.32,4.03-0.96
		c0.99-0.64,1.48-1.5,1.48-2.59c0-0.47-0.13-0.88-0.38-1.22c-0.26-0.34-0.65-0.63-1.19-0.87c-0.35-0.14-1.38-0.34-3.11-0.61
		c-0.58-0.08-1.04-0.15-1.36-0.2c-0.05-0.01-0.14-0.02-0.24-0.04c-2.24-0.35-3.76-0.72-4.57-1.11c-0.88-0.45-1.52-1.01-1.94-1.67
		c-0.41-0.65-0.61-1.47-0.61-2.44c0-1.6,0.72-2.88,2.15-3.84c1.43-0.96,3.37-1.44,5.83-1.44c2.34,0,4.14,0.45,5.41,1.35
		c1.26,0.9,1.91,2.19,1.92,3.86l-2.54,0.01c-0.1-1.02-0.58-1.81-1.43-2.37c-0.86-0.56-2.01-0.84-3.46-0.84
		c-1.68,0-2.97,0.28-3.86,0.86c-0.89,0.57-1.33,1.4-1.33,2.48c0,0.45,0.1,0.82,0.29,1.11c0.19,0.3,0.51,0.55,0.95,0.76
		c0.39,0.19,1.76,0.48,4.11,0.85c0.82,0.12,1.48,0.23,1.96,0.31c2.27,0.37,3.84,0.91,4.72,1.64c0.88,0.73,1.32,1.79,1.32,3.2
		c0,1.81-0.75,3.21-2.25,4.22c-1.5,1.01-3.6,1.51-6.3,1.51c-2.49,0-4.41-0.51-5.78-1.51c-1.37-1.01-2.05-2.42-2.05-4.25V218.79
		L813.27,218.79z M844.5,208.24v-2.25h17.53v2.25h-7.51v16.1H852v-16.1H844.5L844.5,208.24z M874.75,224.34l9.25-18.35h3.08
		l9.02,18.35h-2.88l-2.35-4.89h-11.03l-2.46,4.89H874.75L874.75,224.34z M880.89,217.31h8.97l-4.35-9.23L880.89,217.31
		L880.89,217.31z M911.97,224.34v-18.35h2.51v16.09h10.22v2.26H911.97L911.97,224.34z"/>
	<path class="st1" d="M337.19,222.76c-1.29,0.62-2.62,1.09-4,1.41c-1.38,0.32-2.78,0.48-4.18,0.48c-3.15,0-5.64-0.84-7.43-2.51
		c-1.8-1.67-2.7-3.96-2.7-6.87c0-3,0.93-5.35,2.8-7.03c1.86-1.69,4.47-2.53,7.81-2.53c2.17,0,3.92,0.45,5.24,1.36
		c1.32,0.91,2.07,2.16,2.25,3.76h-2.61c-0.24-0.96-0.8-1.69-1.7-2.21c-0.9-0.52-2.06-0.78-3.47-0.78c-2.36,0-4.23,0.67-5.6,2
		c-1.37,1.33-2.06,3.14-2.06,5.42c0,2.26,0.68,4.05,2.05,5.34c1.36,1.3,3.24,1.95,5.63,1.95c1.09,0,2.1-0.09,3.03-0.28
		c0.94-0.19,1.77-0.46,2.51-0.82v-4.62h-5.49v-2.09h7.93V222.76L337.19,222.76z M355.31,224.34v-18.35h2.44v7.98l9.63-7.98h3.28
		l-9.92,8.11l10.89,10.24h-3.58l-10.3-9.76v9.76H355.31L355.31,224.34z M403.17,214.15h5.37c1.98,0,3.25-0.22,3.82-0.65
		c0.58-0.43,0.86-1.22,0.86-2.36c0-1.15-0.29-1.93-0.86-2.37c-0.58-0.43-1.85-0.65-3.82-0.65h-5.37V214.15L403.17,214.15z
		 M400.73,224.34v-18.35h7.99c1.5,0,2.6,0.06,3.28,0.19c0.68,0.13,1.26,0.35,1.75,0.65c0.65,0.42,1.14,0.98,1.49,1.68
		c0.34,0.71,0.51,1.52,0.51,2.45c0,1.93-0.51,3.3-1.53,4.1c-1.02,0.8-2.83,1.2-5.42,1.2h-5.62v8.07H400.73L400.73,224.34z
		 M448.04,215.17c0-2.14-0.66-3.89-1.98-5.25c-1.32-1.36-3.02-2.04-5.09-2.04c-2.12,0-3.85,0.68-5.19,2.03c-1.33,1.35-2,3.11-2,5.26
		c0,2.15,0.66,3.89,1.99,5.24c1.33,1.35,3.05,2.02,5.17,2.02c2.1,0,3.81-0.67,5.13-2.02C447.38,219.06,448.04,217.32,448.04,215.17
		L448.04,215.17z M440.92,224.63c-1.47,0-2.78-0.21-3.91-0.62c-1.14-0.42-2.15-1.05-3.04-1.91c-0.93-0.91-1.64-1.96-2.13-3.14
		c-0.49-1.18-0.74-2.45-0.74-3.79c0-1.36,0.25-2.64,0.74-3.83c0.49-1.19,1.21-2.23,2.13-3.12c0.9-0.86,1.91-1.5,3.05-1.91
		c1.13-0.41,2.43-0.62,3.89-0.62c1.47,0,2.77,0.21,3.91,0.62c1.14,0.42,2.16,1.05,3.05,1.91c0.93,0.89,1.64,1.93,2.14,3.12
		c0.5,1.19,0.75,2.47,0.75,3.83c0,1.35-0.25,2.62-0.74,3.81c-0.49,1.18-1.21,2.23-2.15,3.12c-0.9,0.85-1.92,1.49-3.05,1.91
		C443.68,224.42,442.38,224.63,440.92,224.63L440.92,224.63z M468.23,224.34v-18.35h2.51v16.09h10.22v2.26H468.23L468.23,224.34z
		 M497.53,224.34v-18.35h2.52v18.35H497.53L497.53,224.34z M518.98,224.34v-18.35h4.2l7.61,15.95l7.68-15.95h4.18v18.35h-2.39
		v-16.77l-8.1,16.77h-2.77l-8-16.77v16.77H518.98L518.98,224.34z M561.51,224.34v-18.35h13.28v2.18h-10.84v5.37h10.07v2.19h-10.07
		v6.32h11.17v2.29H561.51L561.51,224.34z M588.72,224.34l8.2-9.45l-7.4-8.9H593l5.67,7.22l5.86-7.22h3.34l-7.52,8.72l7.78,9.63
		h-3.33l-6.17-7.9l-6.5,7.9H588.72L588.72,224.34z M637.11,224.34v-18.35h4.2l7.61,15.95l7.68-15.95h4.18v18.35h-2.39v-16.77
		l-8.1,16.77h-2.77l-8-16.77v16.77H637.11L637.11,224.34z M695.18,215.17c0-2.14-0.66-3.89-1.98-5.25
		c-1.32-1.36-3.02-2.04-5.09-2.04c-2.12,0-3.85,0.68-5.19,2.03c-1.33,1.35-2,3.11-2,5.26c0,2.15,0.66,3.89,1.99,5.24
		c1.33,1.35,3.05,2.02,5.17,2.02c2.1,0,3.81-0.67,5.13-2.02C694.52,219.06,695.18,217.32,695.18,215.17L695.18,215.17z
		 M688.06,224.63c-1.47,0-2.78-0.21-3.91-0.62c-1.14-0.42-2.15-1.05-3.04-1.91c-0.93-0.91-1.64-1.96-2.13-3.14
		c-0.49-1.18-0.74-2.45-0.74-3.79c0-1.36,0.25-2.64,0.74-3.83c0.49-1.19,1.21-2.23,2.13-3.12c0.9-0.86,1.91-1.5,3.05-1.91
		c1.13-0.41,2.43-0.62,3.89-0.62c1.47,0,2.77,0.21,3.91,0.62c1.14,0.42,2.16,1.05,3.05,1.91c0.93,0.89,1.64,1.93,2.14,3.12
		c0.5,1.19,0.75,2.47,0.75,3.83c0,1.35-0.25,2.62-0.74,3.81c-0.49,1.18-1.21,2.23-2.15,3.12c-0.9,0.85-1.92,1.49-3.05,1.91
		C690.82,224.42,689.52,224.63,688.06,224.63L688.06,224.63z M714.03,218.79h2.64c0.08,1.24,0.61,2.19,1.57,2.86
		c0.97,0.67,2.31,1.01,4.02,1.01c1.7,0,3.04-0.32,4.03-0.96c0.99-0.64,1.48-1.5,1.48-2.59c0-0.47-0.13-0.88-0.38-1.22
		c-0.26-0.34-0.65-0.63-1.19-0.87c-0.35-0.14-1.38-0.34-3.11-0.61c-0.58-0.08-1.04-0.15-1.36-0.2c-0.05-0.01-0.14-0.02-0.24-0.04
		c-2.24-0.35-3.76-0.72-4.57-1.11c-0.88-0.45-1.52-1.01-1.94-1.67c-0.41-0.65-0.61-1.47-0.61-2.44c0-1.6,0.72-2.88,2.15-3.84
		c1.43-0.96,3.37-1.44,5.83-1.44c2.34,0,4.14,0.45,5.41,1.35c1.26,0.9,1.91,2.19,1.92,3.86l-2.54,0.01
		c-0.1-1.02-0.58-1.81-1.43-2.37c-0.86-0.56-2.01-0.84-3.46-0.84c-1.68,0-2.97,0.28-3.86,0.86c-0.89,0.57-1.33,1.4-1.33,2.48
		c0,0.45,0.1,0.82,0.29,1.11c0.19,0.3,0.51,0.55,0.95,0.76c0.39,0.19,1.76,0.48,4.11,0.85c0.82,0.12,1.48,0.23,1.96,0.31
		c2.27,0.37,3.84,0.91,4.72,1.64c0.88,0.73,1.32,1.79,1.32,3.2c0,1.81-0.75,3.21-2.25,4.22c-1.5,1.01-3.6,1.51-6.3,1.51
		c-2.49,0-4.41-0.51-5.78-1.51c-1.37-1.01-2.05-2.42-2.05-4.25V218.79L714.03,218.79z M745.26,208.24v-2.25h17.53v2.25h-7.51v16.1
		h-2.51v-16.1H745.26L745.26,208.24z M794.42,215.17c0-2.14-0.66-3.89-1.98-5.25c-1.32-1.36-3.02-2.04-5.09-2.04
		c-2.12,0-3.85,0.68-5.19,2.03c-1.33,1.35-2,3.11-2,5.26c0,2.15,0.66,3.89,1.99,5.24c1.33,1.35,3.05,2.02,5.17,2.02
		c2.1,0,3.81-0.67,5.13-2.02C793.76,219.06,794.42,217.32,794.42,215.17L794.42,215.17z M787.3,224.63c-1.47,0-2.78-0.21-3.91-0.62
		c-1.14-0.42-2.15-1.05-3.04-1.91c-0.93-0.91-1.64-1.96-2.13-3.14c-0.49-1.18-0.74-2.45-0.74-3.79c0-1.36,0.25-2.64,0.74-3.83
		c0.49-1.19,1.21-2.23,2.13-3.12c0.9-0.86,1.91-1.5,3.05-1.91c1.13-0.41,2.43-0.62,3.89-0.62c1.47,0,2.77,0.21,3.91,0.62
		c1.14,0.42,2.16,1.05,3.05,1.91c0.93,0.89,1.64,1.93,2.14,3.12c0.5,1.19,0.75,2.47,0.75,3.83c0,1.35-0.25,2.62-0.74,3.81
		c-0.49,1.18-1.21,2.23-2.15,3.12c-0.9,0.85-1.92,1.49-3.05,1.91C790.06,224.42,788.76,224.63,787.3,224.63L787.3,224.63z
		 M813.27,218.79h2.64c0.08,1.24,0.61,2.19,1.57,2.86c0.97,0.67,2.31,1.01,4.02,1.01c1.7,0,3.04-0.32,4.03-0.96
		c0.99-0.64,1.48-1.5,1.48-2.59c0-0.47-0.13-0.88-0.38-1.22c-0.26-0.34-0.65-0.63-1.19-0.87c-0.35-0.14-1.38-0.34-3.11-0.61
		c-0.58-0.08-1.04-0.15-1.36-0.2c-0.05-0.01-0.14-0.02-0.24-0.04c-2.24-0.35-3.76-0.72-4.57-1.11c-0.88-0.45-1.52-1.01-1.94-1.67
		c-0.41-0.65-0.61-1.47-0.61-2.44c0-1.6,0.72-2.88,2.15-3.84c1.43-0.96,3.37-1.44,5.83-1.44c2.34,0,4.14,0.45,5.41,1.35
		c1.26,0.9,1.91,2.19,1.92,3.86l-2.54,0.01c-0.1-1.02-0.58-1.81-1.43-2.37c-0.86-0.56-2.01-0.84-3.46-0.84
		c-1.68,0-2.97,0.28-3.86,0.86c-0.89,0.57-1.33,1.4-1.33,2.48c0,0.45,0.1,0.82,0.29,1.11c0.19,0.3,0.51,0.55,0.95,0.76
		c0.39,0.19,1.76,0.48,4.11,0.85c0.82,0.12,1.48,0.23,1.96,0.31c2.27,0.37,3.84,0.91,4.72,1.64c0.88,0.73,1.32,1.79,1.32,3.2
		c0,1.81-0.75,3.21-2.25,4.22c-1.5,1.01-3.6,1.51-6.3,1.51c-2.49,0-4.41-0.51-5.78-1.51c-1.37-1.01-2.05-2.42-2.05-4.25V218.79
		L813.27,218.79z M844.5,208.24v-2.25h17.53v2.25h-7.51v16.1H852v-16.1H844.5L844.5,208.24z M874.75,224.34l9.25-18.35h3.08
		l9.02,18.35h-2.88l-2.35-4.89h-11.03l-2.46,4.89H874.75L874.75,224.34z M880.89,217.31h8.97l-4.35-9.23L880.89,217.31
		L880.89,217.31z M911.97,224.34v-18.35h2.51v16.09h10.22v2.26H911.97L911.97,224.34z"/>
</g>
</svg>
