<svg xmlns="http://www.w3.org/2000/svg" width="113" height="120" viewBox="0 0 113 120"><g><g><g><g><path fill="#003b65" d="M4.717 109.422c.504-.71 1.266-1.064 2.288-1.064 1.022 0 1.782.355 2.28 1.064.497.71.745 1.749.745 3.115 0 1.367-.248 2.405-.746 3.115-.497.71-1.257 1.064-2.279 1.064s-1.784-.355-2.288-1.064c-.505-.71-.757-1.748-.757-3.115 0-1.366.252-2.404.757-3.115zm2.328-4.348c-1.127 0-2.13.176-3.005.527a5.966 5.966 0 0 0-2.209 1.503c-.597.65-1.051 1.44-1.363 2.368-.312.929-.468 1.97-.468 3.125 0 1.14.153 2.17.458 3.084.305.916.753 1.692 1.343 2.329a5.915 5.915 0 0 0 2.18 1.472c.862.346 1.85.518 2.965.518 1.127 0 2.13-.176 3.005-.527a5.973 5.973 0 0 0 2.209-1.503c.597-.65 1.051-1.44 1.363-2.368.311-.929.468-1.97.468-3.125 0-1.14-.153-2.169-.458-3.085-.305-.915-.753-1.691-1.344-2.328a5.919 5.919 0 0 0-2.179-1.472c-.862-.345-1.85-.518-2.965-.518z"/></g><g><path fill="#003b65" d="M20.313 108.457h1.612c.797 0 1.353.14 1.672.418.318.279.478.717.478 1.314 0 .597-.156 1.045-.468 1.343-.312.299-.866.448-1.662.448h-1.632zm-3.701 11.184h3.701v-4.616h1.652c1.088 0 1.993-.126 2.717-.379.723-.251 1.303-.6 1.74-1.044a3.72 3.72 0 0 0 .927-1.553c.179-.59.268-1.216.268-1.88 0-.65-.086-1.26-.259-1.83a3.561 3.561 0 0 0-.905-1.504c-.432-.43-1.015-.772-1.751-1.025-.737-.251-1.662-.378-2.777-.378h-5.313z"/></g><g><path fill="#003b65" d="M29.83 105.432H40v3.145H33.55v2.268h6.05v3.145h-6.05v2.507h6.866l-.318 3.144h-10.27z"/></g><g><path fill="#003b65" d="M46.865 108.378h1.751c.81 0 1.38.146 1.712.438.33.292.497.703.497 1.233 0 .557-.156.985-.468 1.284-.311.298-.852.448-1.621.448h-1.871zm7.642 1.552c0-.57-.09-1.128-.269-1.672a3.526 3.526 0 0 0-.915-1.443c-.432-.417-1.012-.752-1.742-1.005-.73-.251-1.645-.378-2.746-.378h-5.612v14.21h3.642v-4.896h2.07l2.328 4.895h4.04l-2.905-5.671c.716-.425 1.247-.979 1.591-1.662.345-.683.518-1.475.518-2.378z"/></g><g><path fill="#003b65" d="M74.762 108.676h-4.1v-3.244h12.02v3.244h-4.1v10.965h-3.82z"/></g><g><path fill="#003b65" d="M88.732 109.422c.504-.71 1.267-1.064 2.289-1.064 1.022 0 1.781.355 2.279 1.064.497.71.746 1.749.746 3.115 0 1.367-.25 2.405-.746 3.115-.498.71-1.257 1.064-2.28 1.064-1.021 0-1.784-.355-2.288-1.064-.504-.71-.756-1.748-.756-3.115 0-1.366.252-2.404.756-3.115zm2.329-4.348c-1.128 0-2.13.176-3.006.527a5.97 5.97 0 0 0-2.208 1.503c-.597.65-1.052 1.44-1.364 2.368-.312.929-.467 1.97-.467 3.125 0 1.14.152 2.17.458 3.084.304.916.752 1.692 1.342 2.329a5.915 5.915 0 0 0 2.18 1.472c.862.346 1.85.518 2.965.518 1.128 0 2.13-.176 3.005-.527a5.973 5.973 0 0 0 2.21-1.503c.596-.65 1.05-1.44 1.362-2.368.312-.929.468-1.97.468-3.125 0-1.14-.153-2.169-.458-3.085-.305-.915-.753-1.691-1.343-2.328a5.921 5.921 0 0 0-2.179-1.472c-.863-.345-1.851-.518-2.965-.518z"/></g><g><path fill="#003b65" d="M104.269 108.378h1.751c.81 0 1.38.146 1.712.438.331.292.497.703.497 1.233 0 .557-.155.985-.467 1.284-.312.298-.853.448-1.622.448h-1.871zm7.374-.12a3.533 3.533 0 0 0-.916-1.443c-.432-.417-1.012-.752-1.741-1.005-.73-.251-1.646-.378-2.747-.378h-5.612v14.21h3.642v-4.896h2.07l2.328 4.895h4.04l-2.905-5.671c.716-.425 1.247-.979 1.591-1.662.346-.683.518-1.475.518-2.378 0-.57-.09-1.128-.268-1.672z"/></g><g><path fill="#003b65" d="M63.83 108.975l1.453 4.897h-2.925zm2.68 7.53c-2.399 2.73 2.837 3.004 4.485 3.136l-4.935-14.208h-4.34l-4.856 13.982c3.01-1.519 6.11-2.91 9.646-2.91z"/></g></g><g><g><path fill="#003b65" d="M23.864 94.452h2.21c.742 0 1.256.129 1.541.388.286.258.429.634.429 1.124 0 .491-.147.88-.438 1.165-.292.285-.843.427-1.652.427h-2.09zm0-5.373h1.87c.717 0 1.215.102 1.494.308.278.206.418.534.418.985 0 .425-.12.746-.359.965-.238.22-.69.329-1.353.329h-2.07zm-3.602 11.343h6.01c1.008 0 1.861-.113 2.558-.338.696-.226 1.256-.53 1.681-.916.425-.384.73-.832.916-1.343.185-.51.278-1.045.278-1.602 0-.743-.16-1.39-.478-1.94-.318-.55-.868-1.019-1.651-1.403.65-.345 1.105-.77 1.363-1.274.26-.504.388-1.075.388-1.712 0-.504-.08-.978-.238-1.423a2.78 2.78 0 0 0-.827-1.174c-.391-.338-.915-.603-1.572-.796-.656-.192-1.482-.288-2.477-.288h-5.95z"/></g><g><path fill="#003b65" d="M49.108 86.213h3.821v10.965h6.289l-.338 3.244h-9.772z"/></g><g><path fill="#003b65" d="M62.7 89.457h-4.099v-3.244h12.02v3.244h-4.1v10.965h-3.82z"/></g><g><path fill="#003b65" d="M72.87 86.213h3.821v14.209h-3.82z"/></g><g><path fill="#003b65" d="M92.445 95.228a6.97 6.97 0 0 1-.498 2.189 5.107 5.107 0 0 1-1.194 1.761c-.517.498-1.16.89-1.93 1.174-.77.286-1.665.428-2.687.428-1.154 0-2.156-.179-3.005-.537-.85-.358-1.552-.862-2.11-1.512-.557-.65-.975-1.43-1.254-2.339-.278-.908-.417-1.907-.417-2.995 0-1.114.142-2.132.428-3.055.285-.922.716-1.715 1.293-2.378a5.939 5.939 0 0 1 2.15-1.552c.855-.372 1.86-.557 3.015-.557 1.75 0 3.12.435 4.109 1.303.988.87 1.615 2.107 1.88 3.711l-3.8.438a5.472 5.472 0 0 0-.259-.855 2.215 2.215 0 0 0-.428-.687 1.927 1.927 0 0 0-.667-.457c-.265-.113-.584-.17-.955-.17-1.817 0-2.726 1.387-2.726 4.16 0 .769.066 1.422.199 1.96.132.537.321.972.567 1.303.246.332.538.571.876.717.338.146.712.219 1.124.219 1.393 0 2.19-.757 2.388-2.27z"/></g><g><path fill="#003b65" d="M39.832 89.756l1.453 4.897H38.36zm2.68 7.53c-2.399 2.73 2.837 3.003 4.485 3.136l-4.935-14.209h-4.34l-4.856 13.982c3.01-1.518 6.11-2.91 9.646-2.91z"/></g></g><g><path fill="#003b65" d="M46.014 41.75c-.422 2.035-1.94 3.427-3.878 3.261-.923-.079-2.146-.216-2.997-3.124l-.059-3.42 1.315 2.313c.097.86.368 1.952 1.349 2.01.792.047 1.534-.566 1.511-1.357-.09-2.96-5.138-9.035-4.456-13.698.243-1.661 1.423-3.286 3.388-3.393.924-.05 2.482.213 3.334 3.121l.059 3.42-1.315-2.313c-.096-.86-.37-1.952-1.348-2.01-.793-.046-1.523.565-1.512 1.356.03 2.306 5.507 9.493 4.609 13.834zM41.87 3.1c6.706 2.885 13.05 3.533 6.056 5.624l.361 1.081c1.947-.793 3.532-1.081 5.55-1.298V7.426c-6.343 0-.865-3.966 2.525-7.426 3.243 3.46 8.795 7.426 2.306 7.426v1.081c2.09.36 3.676.72 5.478 1.298l.362-.938c-6.057-2.306 0-3.243 6.127-5.767l-5.774 11.918c-5.984-2.74-11.018-2.694-17.145.045zm12.076 19.503l-3.317-5.292h11.535l-3.676 5.292 5.983-3.056v10.881l-5.983-3.502 3.676 5.293H50.63l3.317-5.293-5.912 3.502V19.696zm0 17.766L50.63 35.3h11.535l-3.676 5.068 5.983-2.907v10.659l-5.983-3.205 3.676 5.069H50.63l3.317-5.069-5.912 3.205V37.462zm-18.477-8c-3.055-2.276-4.056-8.515-7.426-4.469l-1.946-2.38c.432-1.873 1.153-3.603 2.235-5.55l4.181.65c.649-1.01 1.225-1.948 2.09-2.885l-2.883-2.956c1.513-1.801 3.315-3.532 5.263-5.19l3.604 2.307 2.451-1.442 2.74 4.758c-6.777 3.892-10.164 9.516-10.31 17.158zm41.854 0c-.144-7.64-3.532-13.265-10.526-17.157l2.74-4.758 2.523 1.442 3.46-2.307c2.236 1.658 4.038 3.389 5.552 5.19l-2.954 2.956c.935.937 1.511 1.875 2.09 2.884l4.251-.649c.865 1.947 1.515 3.677 1.947 5.55L84.75 27.9c-2.931-4.589-4.22 2.372-7.425 4.47zM51.677 53.905c3.243.72 6.128.72 9.155 0v3.532h-9.155zm31.144 4.833s-.583.601-1.7 1.512a66.92 66.92 0 0 1-2.343 1.805H33.716s-1.021-.714-2.105-1.595a27.704 27.704 0 0 1-1.923-1.722zm-20.144 4.761h12.76v.721c-3.966 2.308-8.508 3.967-13.914 4.615zm-11.182 0h9.516l-1.585 7.642c-2.091.938-3.966.938-6.056 0zm-.526 5.336c-5.19-.648-9.804-2.307-13.985-4.615v-.72h12.903zm28.698-30.059c.547 2.474 3.986 3.471 5.84.836 1.195-1.701-.656-5.876-1.953-7.751-1.154 4.325-2.013 5.761-3.887 6.915zm-50.582-7.039c-1.226 1.876-3.138 5.628-1.874 7.606 1.306 2.045 4.486 2.5 5.91-.613-1.874-1.154-2.812-2.667-4.036-6.993zm40.06 10.312a1.02 1.02 0 0 0 1.01.928c.53 0 .965-.41 1.007-.928V35.67l-1.222.648v-2.016h3.676l-.02 6.97c.07 3.503-2.787 3.752-3.395 3.752-3.476 0-3.566-3.577-3.624-4.108-.332-3.033-.387-7.375-.245-10.147.038-.708.09-6.469 3.67-6.469 3.07 0 3.644 3.057 3.323 4.088h-1.284a1.448 1.448 0 0 0-1.357-1.953c-.642 0-1.22.362-1.409.939a3.6 3.6 0 0 0-.133 1.075zm13.653-13.735c4.11 2.378 9.377 12.83 1.95 14.705-.144 8.795-9.513 13.626-2.09 13.482v.937H62.762V53.47c7.281-1.658 11.753-5.983 14.202-12.11-4.607-5.402 2.652-6.633 5.327-12.887.08-.181.27-.3.508-.161zm-52.436.172c2.68 6.247 9.93 7.477 5.253 12.876 2.45 6.127 6.775 10.452 14.273 12.11v3.966h-19.97V56.5c7.426.144-1.874-4.687-2.02-13.482-7.246-1.866-2.21-12.231 1.818-14.672.02-.013.461-.303.646.14"/></g></g></g></svg>